<svg width="22" height="17" viewBox="0 0 22 17" fill="none" xmlns="http://www.w3.org/2000/svg">
<path d="M20.8437 10.3037L16.9466 1.43123C16.9185 1.36726 16.8787 1.30908 16.8294 1.25966C16.3019 0.732401 15.5867 0.436201 14.8409 0.436201C14.0952 0.436201 13.3799 0.732401 12.8525 1.25966C12.7472 1.36482 12.6879 1.50742 12.6875 1.65623V4.18748H9.31249V1.65623C9.31255 1.58222 9.298 1.50894 9.26969 1.44057C9.24138 1.3722 9.19985 1.31008 9.14749 1.25779C8.62007 0.730526 7.90483 0.434326 7.15905 0.434326C6.41328 0.434326 5.69804 0.730526 5.17062 1.25779C5.12124 1.3072 5.0815 1.36538 5.05343 1.42935L1.15624 10.3037C0.860526 10.885 0.700519 11.5259 0.688262 12.178C0.676005 12.8301 0.811817 13.4765 1.08548 14.0685C1.35914 14.6605 1.76352 15.1827 2.26818 15.5959C2.77284 16.0091 3.36465 16.3024 3.99905 16.4537C4.63345 16.6051 5.29393 16.6106 5.93077 16.4699C6.56761 16.3291 7.16423 16.0457 7.67572 15.6411C8.18722 15.2364 8.60026 14.721 8.88377 14.1336C9.16727 13.5462 9.31386 12.9022 9.31249 12.25V5.31248H12.6875V12.25C12.6861 12.9022 12.8327 13.5462 13.1162 14.1336C13.3997 14.721 13.8128 15.2364 14.3243 15.6411C14.8357 16.0457 15.4324 16.3291 16.0692 16.4699C16.7061 16.6106 17.3665 16.6051 18.0009 16.4537C18.6353 16.3024 19.2271 16.0091 19.7318 15.5959C20.2365 15.1827 20.6408 14.6605 20.9145 14.0685C21.1882 13.4765 21.324 12.8301 21.3117 12.178C21.2995 11.5259 21.1395 10.885 20.8437 10.3037ZM4.99999 15.4375C4.36956 15.4375 3.75329 15.2505 3.22911 14.9003C2.70493 14.55 2.29638 14.0522 2.05512 13.4698C1.81387 12.8873 1.75075 12.2464 1.87374 11.6281C1.99673 11.0098 2.30031 10.4419 2.74609 9.99607C3.19187 9.55029 3.75983 9.24671 4.37814 9.12372C4.99645 9.00073 5.63735 9.06385 6.21979 9.30511C6.80223 9.54636 7.30005 9.95491 7.6503 10.4791C8.00055 11.0033 8.18749 11.6195 8.18749 12.25C8.18749 13.0954 7.85167 13.9061 7.25389 14.5039C6.65612 15.1017 5.84537 15.4375 4.99999 15.4375ZM4.99999 7.93748C4.40102 7.93734 3.80864 8.06252 3.26093 8.30498L6.03687 1.9881C6.33024 1.72683 6.70557 1.57609 7.09816 1.56189C7.49076 1.54768 7.87601 1.6709 8.18749 1.91029V9.34373C7.78358 8.90006 7.29136 8.54577 6.74242 8.30359C6.19349 8.06141 5.59997 7.93671 4.99999 7.93748ZM13.8125 1.91123C14.124 1.67184 14.5092 1.54862 14.9018 1.56283C15.2944 1.57703 15.6697 1.72776 15.9631 1.98904L18.7391 8.30498C17.9128 7.93886 16.9923 7.84217 16.108 8.02862C15.2237 8.21507 14.4206 8.67519 13.8125 9.34373V1.91123ZM17 15.4375C16.3696 15.4375 15.7533 15.2505 15.2291 14.9003C14.7049 14.55 14.2964 14.0522 14.0551 13.4698C13.8139 12.8873 13.7507 12.2464 13.8737 11.6281C13.9967 11.0098 14.3003 10.4419 14.7461 9.99607C15.1919 9.55029 15.7598 9.24671 16.3781 9.12372C16.9965 9.00073 17.6374 9.06385 18.2198 9.30511C18.8022 9.54636 19.3001 9.95491 19.6503 10.4791C20.0005 11.0033 20.1875 11.6195 20.1875 12.25C20.1875 13.0954 19.8517 13.9061 19.2539 14.5039C18.6561 15.1017 17.8454 15.4375 17 15.4375Z" fill="#B7F84D"/>
</svg>
