<svg width="24" height="25" viewBox="0 0 24 25" fill="none" xmlns="http://www.w3.org/2000/svg">
<path d="M21 21.5L16.657 17.157M16.657 17.157C17.3998 16.4141 17.9891 15.5321 18.3912 14.5615C18.7932 13.5909 19.0002 12.5506 19.0002 11.5C19.0002 10.4494 18.7932 9.40905 18.3912 8.43842C17.9891 7.46779 17.3998 6.58585 16.657 5.84296C15.9141 5.10007 15.0321 4.51078 14.0615 4.10874C13.0909 3.70669 12.0506 3.49976 11 3.49976C9.94936 3.49976 8.90905 3.70669 7.93842 4.10874C6.96779 4.51078 6.08585 5.10007 5.34296 5.84296C3.84263 7.34329 2.99976 9.37818 2.99976 11.5C2.99976 13.6217 3.84263 15.6566 5.34296 17.157C6.84329 18.6573 8.87818 19.5002 11 19.5002C13.1217 19.5002 15.1566 18.6573 16.657 17.157Z" stroke="white" stroke-linecap="round" stroke-linejoin="round"/>
</svg>
