<svg width="20" height="14" viewBox="0 0 20 14" fill="none" xmlns="http://www.w3.org/2000/svg">
<path d="M1.616 14C1.15533 14 0.771 13.846 0.463 13.538C0.155 13.23 0.000666667 12.8453 0 12.384V1.616C0 1.15533 0.154333 0.771 0.463 0.463C0.771667 0.155 1.156 0.000666667 1.616 0H18.385C18.845 0 19.2293 0.154333 19.538 0.463C19.8467 0.771667 20.0007 1.156 20 1.616V12.385C20 12.845 19.846 13.2293 19.538 13.538C19.23 13.8467 18.8457 14.0007 18.385 14H1.616ZM1.616 13H18.385C18.5643 13 18.7117 12.9423 18.827 12.827C18.9423 12.7117 19 12.5643 19 12.385V1.615C19 1.43567 18.9423 1.28833 18.827 1.173C18.7117 1.05767 18.5643 1 18.385 1H1.615C1.43567 1 1.28833 1.05767 1.173 1.173C1.05767 1.28833 1 1.436 1 1.616V12.385C1 12.5643 1.05767 12.7117 1.173 12.827C1.28833 12.9423 1.436 13 1.616 13ZM1.885 9.692H2.712V5.692L5.416 9.692H6.269V4.308H5.442V8.308L2.788 4.308H1.884L1.885 9.692ZM7.808 9.692H11.192V8.865H8.692V7.458H11.192V6.631H8.692V5.134H11.192V4.308H7.808V9.692ZM13.423 9.692H17.423C17.6297 9.692 17.7967 9.62833 17.924 9.501C18.052 9.37367 18.116 9.20667 18.116 9V4.308H17.289V8.808H15.842V5.308H15.016V8.808H13.558V4.308H12.731V9C12.731 9.20667 12.7947 9.37367 12.922 9.501C13.0493 9.62833 13.2163 9.692 13.423 9.692Z" fill="white"/>
</svg>
