<svg width="22" height="20" viewBox="0 0 22 20" fill="none" xmlns="http://www.w3.org/2000/svg">
<path d="M8.24995 20L7.84995 16.8C7.63329 16.7167 7.42928 16.6167 7.23795 16.5C7.04662 16.3833 6.85895 16.2583 6.67495 16.125L3.69995 17.375L0.949951 12.625L3.52495 10.675C3.50828 10.5583 3.49995 10.446 3.49995 10.338V9.663C3.49995 9.55433 3.50828 9.44167 3.52495 9.325L0.949951 7.375L3.69995 2.625L6.67495 3.875C6.85828 3.74167 7.04995 3.61667 7.24995 3.5C7.44995 3.38333 7.64995 3.28333 7.84995 3.2L8.24995 0H13.75L14.15 3.2C14.3666 3.28333 14.571 3.38333 14.763 3.5C14.955 3.61667 15.1423 3.74167 15.325 3.875L18.2999 2.625L21.0499 7.375L18.475 9.325C18.4916 9.44167 18.5 9.55433 18.5 9.663V10.337C18.5 10.4457 18.4833 10.5583 18.45 10.675L21.025 12.625L18.275 17.375L15.325 16.125C15.1416 16.2583 14.95 16.3833 14.75 16.5C14.55 16.6167 14.35 16.7167 14.15 16.8L13.75 20H8.24995ZM9.99995 18H11.975L12.325 15.35C12.8416 15.2167 13.321 15.021 13.763 14.763C14.205 14.505 14.609 14.1923 14.975 13.825L17.45 14.85L18.4249 13.15L16.275 11.525C16.3583 11.2917 16.4166 11.046 16.45 10.788C16.4833 10.53 16.5 10.2673 16.5 10C16.5 9.73267 16.4833 9.47033 16.45 9.213C16.4166 8.95567 16.3583 8.70967 16.275 8.475L18.4249 6.85L17.45 5.15L14.975 6.2C14.6083 5.81667 14.2043 5.496 13.763 5.238C13.3216 4.98 12.8423 4.784 12.325 4.65L12 2H10.025L9.67495 4.65C9.15829 4.78333 8.67928 4.97933 8.23795 5.238C7.79662 5.49667 7.39228 5.809 7.02495 6.175L4.54995 5.15L3.57495 6.85L5.72495 8.45C5.64162 8.7 5.58328 8.95 5.54995 9.2C5.51662 9.45 5.49995 9.71667 5.49995 10C5.49995 10.2667 5.51662 10.525 5.54995 10.775C5.58328 11.025 5.64162 11.275 5.72495 11.525L3.57495 13.15L4.54995 14.85L7.02495 13.8C7.39162 14.1833 7.79595 14.5043 8.23795 14.763C8.67995 15.0217 9.15895 15.2173 9.67495 15.35L9.99995 18ZM11.05 13.5C12.0166 13.5 12.8416 13.1583 13.525 12.475C14.2083 11.7917 14.55 10.9667 14.55 10C14.55 9.03333 14.2083 8.20833 13.525 7.525C12.8416 6.84167 12.0166 6.5 11.05 6.5C10.0666 6.5 9.23728 6.84167 8.56195 7.525C7.88662 8.20833 7.54928 9.03333 7.54995 10C7.55062 10.9667 7.88828 11.7917 8.56295 12.475C9.23762 13.1583 10.0666 13.5 11.05 13.5Z" fill="white"/>
</svg>
